<svg width="24" height="24" viewBox="0 0 24 24" fill="none" xmlns="http://www.w3.org/2000/svg">
<g clip-path="url(#clip0_301_2643)">
<path d="M10.5 7.63623V11.2731V12.7267V16.3635H13.5001V12.7267V11.2731V7.63623H10.5Z" fill="black"/>
<path d="M1.50002 12.6821C2.32845 12.6821 3.00003 12.0106 3.00003 11.1821C3.00003 10.3537 2.32845 9.68213 1.50002 9.68213C0.671581 9.68213 0 10.3537 0 11.1821C0 12.0106 0.671581 12.6821 1.50002 12.6821Z" fill="black"/>
<path d="M1.50002 14.3179C2.32845 14.3179 3.00003 13.6463 3.00003 12.8179C3.00003 11.9894 2.32845 11.3179 1.50002 11.3179C0.671581 11.3179 0 11.9894 0 12.8179C0 13.6463 0.671581 14.3179 1.50002 14.3179Z" fill="black"/>
<path d="M3.00003 11.1821H0V12.8185H3.00003V11.1821Z" fill="black"/>
<path d="M22.5 14.3179C23.3285 14.3179 24 13.6463 24 12.8179C24 11.9894 23.3285 11.3179 22.5 11.3179C21.6716 11.3179 21 11.9894 21 12.8179C21 13.6463 21.6716 14.3179 22.5 14.3179Z" fill="black"/>
<path d="M22.5 12.6821C23.3285 12.6821 24 12.0106 24 11.1821C24 10.3537 23.3285 9.68213 22.5 9.68213C21.6716 9.68213 21 10.3537 21 11.1821C21 12.0106 21.6716 12.6821 22.5 12.6821Z" fill="black"/>
<path d="M21 12.8185H24V11.1821H21V12.8185Z" fill="black"/>
<path d="M6.68153 17.5913C7.50994 17.5913 8.18153 16.9198 8.18153 16.0913C8.18153 15.2629 7.50994 14.5913 6.68153 14.5913C5.85309 14.5913 5.18152 15.2629 5.18152 16.0913C5.18152 16.9198 5.85309 17.5913 6.68153 17.5913Z" fill="black"/>
<path d="M6.68153 19.2276C7.50994 19.2276 8.18153 18.5561 8.18153 17.7276C8.18153 16.8992 7.50994 16.2275 6.68153 16.2275C5.85309 16.2275 5.18152 16.8992 5.18152 17.7276C5.18152 18.5561 5.85309 19.2276 6.68153 19.2276Z" fill="black"/>
<path d="M8.18153 16.0913H5.18152V17.7277H8.18153V16.0913Z" fill="black"/>
<path d="M6.68153 7.77245C7.50994 7.77245 8.18153 7.10088 8.18153 6.27247C8.18153 5.44404 7.50994 4.77246 6.68153 4.77246C5.85309 4.77246 5.18152 5.44404 5.18152 6.27247C5.18152 7.10088 5.85309 7.77245 6.68153 7.77245Z" fill="black"/>
<path d="M6.68153 13.0903C7.50994 13.0903 8.18153 12.4188 8.18153 11.5903C8.18153 10.7619 7.50994 10.0903 6.68153 10.0903C5.85309 10.0903 5.18152 10.7619 5.18152 11.5903C5.18152 12.4188 5.85309 13.0903 6.68153 13.0903Z" fill="black"/>
<path d="M8.18153 6.27246H5.18152V11.6248H8.18153V6.27246Z" fill="black"/>
<path d="M17.3185 9.40968C18.1469 9.40968 18.8185 8.73811 18.8185 7.90968C18.8185 7.08124 18.1469 6.40967 17.3185 6.40967C16.4901 6.40967 15.8185 7.08124 15.8185 7.90968C15.8185 8.73811 16.4901 9.40968 17.3185 9.40968Z" fill="black"/>
<path d="M17.3185 7.77245C18.1469 7.77245 18.8185 7.10088 18.8185 6.27247C18.8185 5.44404 18.1469 4.77246 17.3185 4.77246C16.4901 4.77246 15.8185 5.44404 15.8185 6.27247C15.8185 7.10088 16.4901 7.77245 17.3185 7.77245Z" fill="black"/>
<path d="M15.8179 7.90882H18.8179V6.27246H15.8179V7.90882Z" fill="black"/>
<path d="M12 4.63624C12.8285 4.63624 13.5001 3.96467 13.5001 3.13624C13.5001 2.30781 12.8285 1.63623 12 1.63623C11.1716 1.63623 10.5 2.30781 10.5 3.13624C10.5 3.96467 11.1716 4.63624 12 4.63624Z" fill="black"/>
<path d="M12 3.00001C12.8285 3.00001 13.5001 2.32844 13.5001 1.50001C13.5001 0.671577 12.8285 0 12 0C11.1716 0 10.5 0.671577 10.5 1.50001C10.5 2.32844 11.1716 3.00001 12 3.00001Z" fill="black"/>
<path d="M10.5 3.13638H13.5001V1.5H10.5V3.13638Z" fill="black"/>
<path d="M12 24C12.8285 24 13.5001 23.3284 13.5001 22.5C13.5001 21.6716 12.8285 21 12 21C11.1716 21 10.5 21.6716 10.5 22.5C10.5 23.3284 11.1716 24 12 24Z" fill="black"/>
<path d="M12 22.3638C12.8285 22.3638 13.5001 21.6922 13.5001 20.8638C13.5001 20.0353 12.8285 19.3638 12 19.3638C11.1716 19.3638 10.5 20.0353 10.5 20.8638C10.5 21.6922 11.1716 22.3638 12 22.3638Z" fill="black"/>
<path d="M10.5 22.5001H13.5001V20.8638H10.5V22.5001Z" fill="black"/>
<path d="M17.3185 19.2276C18.1469 19.2276 18.8185 18.5561 18.8185 17.7276C18.8185 16.8992 18.1469 16.2275 17.3185 16.2275C16.4901 16.2275 15.8185 16.8992 15.8185 17.7276C15.8185 18.5561 16.4901 19.2276 17.3185 19.2276Z" fill="black"/>
<path d="M17.3185 13.9097C18.1469 13.9097 18.8185 13.2381 18.8185 12.4097C18.8185 11.5812 18.1469 10.9097 17.3185 10.9097C16.4901 10.9097 15.8185 11.5812 15.8185 12.4097C15.8185 13.2381 16.4901 13.9097 17.3185 13.9097Z" fill="black"/>
<path d="M15.8179 17.727H18.8179V12.4087H15.8179V17.727Z" fill="black"/>
<path d="M12 9.13628C12.8285 9.13628 13.5001 8.46464 13.5001 7.63627C13.5001 6.80783 12.8285 6.13623 12 6.13623C11.1716 6.13623 10.5 6.80783 10.5 7.63627C10.5 8.46464 11.1716 9.13628 12 9.13628Z" fill="black"/>
<path d="M12 17.8638C12.8285 17.8638 13.5001 17.1922 13.5001 16.3638C13.5001 15.5353 12.8285 14.8638 12 14.8638C11.1716 14.8638 10.5 15.5353 10.5 16.3638C10.5 17.1922 11.1716 17.8638 12 17.8638Z" fill="black"/>
</g>
<defs>
<clipPath id="clip0_301_2643">
<rect width="24" height="24" fill="white"/>
</clipPath>
</defs>
</svg>
