<svg width="18" height="18" viewBox="0 0 18 18" fill="none" xmlns="http://www.w3.org/2000/svg">
<path d="M4.84473 11.4512L4.84863 11.4502M4.84473 11.4512L4.84863 11.4482M4.84473 11.4512L4.84863 11.4502M4.84473 11.4512L4.84863 11.4482M4.84863 11.4502V11.4482M4.84863 11.4502V11.4482M9 0.5C11.2543 0.5 13.4167 1.39518 15.0107 2.98926C16.6048 4.5833 17.5 6.74564 17.5 9C17.5 10.6811 17.0014 12.3248 16.0674 13.7227C15.1334 15.1203 13.8059 16.2092 12.2529 16.8525C10.6998 17.4959 8.9906 17.6649 7.3418 17.3369C5.69296 17.0089 4.17801 16.1995 2.98926 15.0107C1.8005 13.822 0.991034 12.3071 0.663086 10.6582C0.335117 9.00942 0.504143 7.30023 1.14746 5.74707C1.79081 4.19413 2.87976 2.86658 4.27734 1.93262C5.67516 0.998653 7.31884 0.500006 9 0.5ZM9.00098 8.56055C7.52448 8.38526 6.02749 8.50762 4.59863 8.91895L4.55078 8.93262L4.50195 8.93652C4.48164 8.93821 4.46144 8.94452 4.44336 8.95508C4.42553 8.9656 4.41084 8.98022 4.39941 8.99707C4.38784 9.01417 4.38004 9.03331 4.37695 9.05371C4.3739 9.07394 4.37497 9.09461 4.38086 9.11426C4.38688 9.13399 4.39727 9.1528 4.41113 9.16797L4.46191 9.20312C4.48103 9.2108 4.50187 9.21418 4.52246 9.21289C4.54298 9.21158 4.56316 9.20529 4.58105 9.19531L4.63184 9.16699L4.68848 9.15137C7.31532 8.40768 10.1181 8.66948 12.5537 9.87402L13.0361 10.1279L13.043 10.1318C13.0736 10.1496 13.1102 10.1546 13.1445 10.1465C13.1752 10.1392 13.2005 10.1202 13.2197 10.0957C13.2322 10.068 13.2375 10.0377 13.2305 10.0078C13.2225 9.97448 13.2018 9.94607 13.1738 9.92676C11.887 9.19978 10.4688 8.73477 9.00098 8.56055ZM9.15918 5.79004C7.42577 5.64936 5.72157 5.78984 4.40918 6.14258L4.15234 6.21582C4.10518 6.23014 4.06398 6.25836 4.0332 6.2959L4.00586 6.33594C3.975 6.39376 3.96827 6.46171 3.9873 6.52441C4.00635 6.58716 4.04966 6.64001 4.10742 6.6709C4.16518 6.70177 4.23326 6.70842 4.2959 6.68945L4.5459 6.61816C5.81988 6.2758 7.45889 6.14896 9.0918 6.27734C10.7514 6.40784 12.4568 6.80715 13.7969 7.55566L13.9531 7.63281C14.0086 7.66018 14.0725 7.66581 14.1318 7.64844L14.1748 7.63086C14.2157 7.60996 14.2505 7.57798 14.2744 7.53809C14.3062 7.48497 14.3171 7.42186 14.3047 7.36133C14.293 7.30516 14.2612 7.25555 14.2168 7.21973C12.8214 6.40196 10.9982 5.9393 9.15918 5.79004Z" fill="#1ED760" stroke="black"/>
</svg>
